<svg id="Layer_1" data-name="Layer 1" xmlns="http://www.w3.org/2000/svg" viewBox="0 0 312.73 312.73"><defs><style>.cls-1{fill:#212121;}</style></defs><path class="cls-1" d="M117.54,117.38a6.77,6.77,0,0,1,4.8,2h0a6.8,6.8,0,0,1,0,9.63h0a6.81,6.81,0,0,1-9.62,0h0a6.81,6.81,0,0,1,4.82-11.62Z"/><path class="cls-1" d="M156.16.78A155.56,155.56,0,1,1,96.61,12.59,155.27,155.27,0,0,1,156.16.78Zm54.63,23.78a143.62,143.62,0,1,0,46.35,31,142.36,142.36,0,0,0-46.35-31Z"/><path class="cls-1" d="M215.3,168.57a58.24,58.24,0,0,1-23.8,35.66,60,60,0,0,1-42,10.24l-.26,0h0a59.43,59.43,0,0,1-39.13-22.23,57.54,57.54,0,0,1-11.9-42.94v0l0-.24a57.57,57.57,0,0,1,8.33-23.11v0c.06-.1.21-.32.35-.52s-.1.15,0-.08l11,6.94c-.12.2-.11.15-.35.49,0,.07,0,0,0,.07h0a44.72,44.72,0,0,0-6.44,17.92l0,.25h0a44.67,44.67,0,0,0,9.27,33.33,46.47,46.47,0,0,0,30.6,17.36h0l.23,0a47,47,0,0,0,32.93-8.06,45.26,45.26,0,0,0,18.53-27.7l12.68,2.69Zm-98.49-54.93a59.85,59.85,0,0,1,48-15.06l-1.62,12.83a47.12,47.12,0,0,0-37.64,11.81l-8.72-9.58Z"/><path class="cls-1" d="M169.3,66.45a91.59,91.59,0,0,0-91.05,44.86,90.62,90.62,0,0,0,8.9,103.24l-9.94,8.27a103.26,103.26,0,0,1-19.07-34.58A102.37,102.37,0,0,1,53.61,166,103.49,103.49,0,0,1,93.88,74.29a104.19,104.19,0,0,1,77.05-20.67L169.3,66.45Z"/><path class="cls-1" d="M105,230.94a93.3,93.3,0,0,0,16.87,9.33,89.68,89.68,0,0,0,11.69,4,92.56,92.56,0,0,0,12.19,2.43A91.66,91.66,0,0,0,234.24,206a90.32,90.32,0,0,0,12.76-31l12.68,2.59A104.16,104.16,0,0,1,183,257.27a104.54,104.54,0,0,1-38.94,2.26,106,106,0,0,1-13.91-2.74,105.45,105.45,0,0,1-23.27-9.39,104.3,104.3,0,0,1-9.36-5.86l7.41-10.6Z"/><path class="cls-1" d="M156.16,137.09a19.31,19.31,0,0,1,7.42,1.49h0a19.39,19.39,0,0,1,10.53,10.54v0a19.25,19.25,0,0,1,0,14.85v0a19.33,19.33,0,0,1-10.53,10.53h0a19.22,19.22,0,0,1-14.84,0h0A19.33,19.33,0,0,1,138.18,164v0a19.25,19.25,0,0,1,0-14.85v0a19.39,19.39,0,0,1,10.53-10.54h0a19.31,19.31,0,0,1,7.42-1.49Zm2.48,13.45a6.92,6.92,0,0,0-5,0h0a6.69,6.69,0,0,0-3.53,3.54h0a6.8,6.8,0,0,0,0,5h0a6.6,6.6,0,0,0,1.42,2.11,6.49,6.49,0,0,0,2.11,1.42h0a6.78,6.78,0,0,0,5,0h0a6.49,6.49,0,0,0,2.11-1.42,6.8,6.8,0,0,0,1.43-2.11h0a6.8,6.8,0,0,0,0-5h0a6.68,6.68,0,0,0-1.43-2.11,6.52,6.52,0,0,0-2.11-1.43Z"/><polygon class="cls-1" points="285.3 189.22 167.62 165.47 170.16 152.79 287.83 176.54 285.3 189.22 285.3 189.22"/><path class="cls-1" d="M91.25,208.5A19.39,19.39,0,0,1,98.67,210h0a19.44,19.44,0,0,1,10.53,25.43h0a19.16,19.16,0,0,1-10.53,10.53h0a19.43,19.43,0,0,1-25.43-10.53v0a19.47,19.47,0,0,1,18-26.89ZM93.73,222a6.52,6.52,0,0,0-2.48-.47,6.41,6.41,0,0,0-2.48.48,6.49,6.49,0,0,0-2.11,1.42,6.68,6.68,0,0,0-1.43,2.11,6.6,6.6,0,0,0-.47,2.48,6.34,6.34,0,0,0,.47,2.48h0a6.68,6.68,0,0,0,1.43,2.11,6.23,6.23,0,0,0,4.59,1.9,6.41,6.41,0,0,0,2.48-.48h0a6.63,6.63,0,0,0,2.09-1.42,6.41,6.41,0,0,0,1.42-2.09v0a6.7,6.7,0,0,0,0-5A6.68,6.68,0,0,0,93.73,222Z"/><path class="cls-1" d="M117.54,110.88a13.25,13.25,0,0,1,5.08,1,13,13,0,0,1,1.89,1H125l1.9,1.9a13.49,13.49,0,0,1,2.88,4.34,13.21,13.21,0,0,1-2.88,14.44v0h0a13.41,13.41,0,0,1-4.29,2.87,13.39,13.39,0,0,1-14.49-2.87l-1.9-1.91v-.53a13,13,0,0,1-1-1.89,13.43,13.43,0,0,1-1-5.08,13.23,13.23,0,0,1,1-5.07,13.49,13.49,0,0,1,2.88-4.34,13.6,13.6,0,0,1,9.41-3.9Zm.11,13h-.26l-.08.08-.09.08a1.42,1.42,0,0,0,0,.15.8.8,0,0,0,0,.11.57.57,0,0,0,.08.13h0l.08.08h.26a.35.35,0,0,0,.12-.07h0a.63.63,0,0,0,.07-.12.8.8,0,0,0,0-.11,1.42,1.42,0,0,0,0-.15l-.09-.08h0a.35.35,0,0,0-.12-.07Z"/><path class="cls-1" d="M84.85,46.21a19.58,19.58,0,0,1,7.48,1.5A19.88,19.88,0,0,1,96.45,50h.34l1.9,1.9a19.59,19.59,0,0,1,4.23,6.38,19.3,19.3,0,0,1,0,14.92A19.27,19.27,0,0,1,92.31,83.85a19.3,19.3,0,0,1-14.92,0A19.59,19.59,0,0,1,71,79.62l-1.9-1.9v-.34a19.88,19.88,0,0,1-2.33-4.12,19.4,19.4,0,0,1,0-15A19.82,19.82,0,0,1,71,52v0h0a19.82,19.82,0,0,1,6.32-4.23,19.62,19.62,0,0,1,7.48-1.5Zm2.51,13.47a6.8,6.8,0,0,0-5,0,6.85,6.85,0,0,0-2.15,1.43h0a6.85,6.85,0,0,0-1.43,2.15,6.8,6.8,0,0,0,0,5,6.65,6.65,0,0,0,1.44,2.16h0a6.85,6.85,0,0,0,2.12,1.45A6.65,6.65,0,0,0,91,63.24a6.85,6.85,0,0,0-1.45-2.12h0a6.65,6.65,0,0,0-2.16-1.44Z"/><path class="cls-1" d="M234.08,78.63a19.68,19.68,0,0,1,13.78,5.71l0,.07a19.47,19.47,0,0,1-27.53,27.53l-.07,0a19.45,19.45,0,0,1-4.22-21.23,19.81,19.81,0,0,1,4.22-6.3v0l0,0h0a19.45,19.45,0,0,1,13.75-5.71Zm2.51,13.46a6.49,6.49,0,0,0-2.51-.48,6.41,6.41,0,0,0-2.48.48,6.74,6.74,0,0,0-2.13,1.42h0l0,0v0A6.74,6.74,0,0,0,228,95.65a6.41,6.41,0,0,0-.48,2.48,6.23,6.23,0,0,0,1.91,4.6h0a6.63,6.63,0,0,0,2.13,1.42,6.41,6.41,0,0,0,2.48.48,6.44,6.44,0,0,0,6.51-6.51,6.41,6.41,0,0,0-.48-2.48,6.78,6.78,0,0,0-1.42-2.14h0a6.5,6.5,0,0,0-2.09-1.43Z"/></svg>